<svg xmlns="http://www.w3.org/2000/svg" width="400" height="400">
  <g fill-rule="evenodd">
    <path d="M255.106 108.516L207.613 156.2l-.007 28.909-.006 28.908.956.436c1.325.604-2.754 4.545 49.544-47.874l47.5-47.609V90.365c0-21.715-.116-28.721-.48-29.085-1.502-1.502-.948-2.026-50.014 47.236m83.092 27.848c-11.219 11.2-32.726 32.71-47.793 47.8-15.068 15.09-27.533 27.436-27.7 27.436-.168 0-.305-6.984-.305-15.52 0-16.286-.021-16.48-1.773-16.48-.542 0-9.447 8.631-26.72 25.896L208 231.392V270h57.858l47.471-47.569 47.471-47.57v-28.95c0-29.956.002-29.911-1.582-29.911-.341 0-9.8 9.164-21.02 20.364" fill="#f80404"/>
    <path d="M116.67 191.531l-75.534 75.531.042 28.663c.023 15.764.147 28.935.275 29.269.75 1.954 1.391 1.348 49.653-46.994 26.137-26.18 47.651-47.6 47.808-47.6.157 0 .286 11.484.286 25.52 0 19.316.117 25.637.48 26 1.491 1.491 1.679 1.324 28.621-25.621l26.099-26.101v-56.685c0-61.715.137-57.513-1.871-57.513-.179 0-34.315 33.989-75.859 75.531" fill="#f3f3f3"/>
    <path d="M0 200v200h400V0H0v200M305.12 61.28c.364.364.48 7.37.48 29.085v28.605l-47.5 47.609c-52.298 52.419-48.219 48.478-49.544 47.874l-.956-.436.006-28.908.007-28.909 47.493-47.684c49.066-49.262 48.512-48.738 50.014-47.236m-111.494 55.134c.76.406.774 1.466.774 57.099v56.685l-26.099 26.101c-26.942 26.945-27.13 27.112-28.621 25.621-.363-.363-.48-6.684-.48-26 0-14.036-.129-25.52-.286-25.52-.157 0-21.671 21.42-47.808 47.6-48.262 48.342-48.903 48.948-49.653 46.994-.128-.334-.252-13.505-.275-29.269l-.042-28.663 75.534-75.531C158.214 149.989 192.35 116 192.529 116c.178 0 .672.186 1.097.414m166.694.066c.364.364.48 7.447.48 29.431v28.95l-47.471 47.57L265.858 270H208v-38.608l25.907-25.896c17.273-17.265 26.178-25.896 26.72-25.896 1.752 0 1.773.194 1.773 16.48 0 8.536.137 15.52.305 15.52.167 0 12.632-12.346 27.7-27.436 71.273-71.38 68.705-68.894 69.915-67.684" fill="#040404"/>
  </g>
</svg>
